# xmcd
#
# Track frame offsets:
#	150
#	10164
#	27061
#	42319
#	54763
#	68700
#	93577
#	110322
#	124853
#	139126
#	154939
#	177921
#
# Disc length: 2581 seconds
#
# Revision: 0
# Processed by: cddbd v1.5.1PL2 Copyright (c) Steve Scherf et al.
# Submitted via: dBpowerAMP V4.0
#
DISCID=960a130c
DTITLE=Hole In The Wall - Rose Of Barcelona
DYEAR=1978
DGENRE=
TTITLE0=Ten Thousand People
TTITLE1=Hand In Glove
TTITLE2=Ride The Ridges
TTITLE3=Charming Betsy
TTITLE4=Tug-O-War
TTITLE5=Sleeping Lady Revealed
TTITLE6=Rose Of Barcelona
TTITLE7=Sun Was Up
TTITLE8=Rocky Road
TTITLE9=Remnants Of Paradise
TTITLE10=Waltzing On The Stars
TTITLE11=Have No Fear
EXTD=
EXTT0=
EXTT1=
EXTT2=
EXTT3=
EXTT4=
EXTT5=
EXTT6=
EXTT7=
EXTT8=
EXTT9=
EXTT10=
EXTT11=
PLAYORDER=
